<?xml version="1.0" encoding="utf-8"?>
<!-- Generator: Adobe Illustrator 21.0.2, SVG Export Plug-In . SVG Version: 6.00 Build 0)  -->
<svg version="1.1" id="Layer_1" xmlns="http://www.w3.org/2000/svg" xmlns:xlink="http://www.w3.org/1999/xlink" x="0px" y="0px"
	 viewBox="0 0 206 48" style="enable-background:new 0 0 206 48;" xml:space="preserve">
<g fill="#FFFFFF">
  <g>
    <path d="M48,48H0V0h48V48z M5,43H43V5H5V43z"/>
  	<path d="M13.9,35V13.6h4.3l11.6,13.8V13.6h4.9V35h-4.3L18.8,21.2V35H13.9z"/>
  </g>
  <g>
  	<path d="M56.3,35V13.6h4.3l11.6,13.8V13.6h4.9V35h-4.3L61.3,21.2V35H56.3z"/>
  	<path d="M83.9,11.9c1.5,0,2.7,1.2,2.7,2.7s-1.2,2.7-2.7,2.7s-2.7-1.2-2.7-2.7S82.4,11.9,83.9,11.9z M86.2,20.7V35h-4.6V20.7H86.2z"
  		/>
  	<path d="M100.8,25.2c-1.1-0.9-2.3-1.1-3-1.1c-1.4,0-2.3,0.7-2.6,1c-0.6,0.6-1.1,1.5-1.1,2.7c0,1.1,0.4,2,1,2.6
  		c0.7,0.8,1.8,1.2,2.8,1.2c0.8,0,1.9-0.2,2.9-1.1v4.2c-1.2,0.7-2.4,0.9-3.6,0.9c-2.4,0-4.2-0.9-5.5-2.1c-1.1-1.1-2.2-2.8-2.2-5.4
  		c0-2.4,1-4.4,2.4-5.6c1.6-1.5,3.5-2,5.4-2c1.2,0,2.4,0.2,3.6,0.8V25.2z"/>
  	<path d="M118.5,28.6h-10.7c0,0.8,0.3,1.8,0.9,2.4c0.7,0.8,1.7,0.9,2.4,0.9c0.7,0,1.4-0.1,1.9-0.4c0.1,0,0.6-0.4,1-1.2l4.4,0.4
  		c-0.6,2-1.9,3.1-2.8,3.6c-1.4,0.8-2.9,1.1-4.5,1.1c-2.1,0-4-0.4-5.7-2c-1.2-1.2-2.1-3.1-2.1-5.5c0-2,0.7-4.2,2.2-5.6
  		c1.7-1.7,3.9-2,5.5-2s3.9,0.3,5.7,2.1c1.7,1.8,2,4,2,5.8V28.6z M114.3,25.9c0-0.1-0.3-1-0.9-1.7c-0.5-0.5-1.2-0.8-2.2-0.8
  		c-1.2,0-1.9,0.5-2.3,0.9c-0.4,0.4-0.7,0.9-0.8,1.5H114.3z"/>
  	<path d="M128.9,13.6c1.2,0,3.8,0.1,5.4,1.6c1.4,1.3,1.5,3.1,1.5,4c0,0.8-0.1,1.8-0.7,2.7c-0.5,0.9-1.3,1.3-1.8,1.6
  		c1,0.2,2.2,0.7,2.9,1.4c0.7,0.7,1.4,1.9,1.4,3.8c0,2.1-0.8,3.5-1.7,4.3c-1.8,1.7-4.3,1.8-5.6,1.8h-8V13.6H128.9z M127.3,22.3h0.8
  		c0.7,0,1.8-0.1,2.5-0.6c0.4-0.3,0.9-1,0.9-1.9s-0.4-1.5-0.8-1.8c-0.7-0.5-1.7-0.5-2.6-0.5h-0.8V22.3z M127.3,31.1h1.2
  		c1.2,0,2.8,0,3.6-0.9c0.4-0.4,0.7-1,0.7-1.8c0-0.9-0.4-1.4-0.7-1.7c-0.9-0.8-2.5-0.8-3.5-0.8h-1.3V31.1z"/>
  	<path d="M140.9,20.7h4.6v2.2c0.4-0.8,1.1-1.5,1.8-2c0.8-0.5,1.6-0.6,2.5-0.6c0.6,0,1,0.1,1.5,0.2l-0.3,4.3
  		c-0.6-0.3-1.3-0.5-2.1-0.5c-1,0-1.7,0.4-2.3,1c-1,1.1-1.1,2.6-1.1,3.8V35h-4.6V20.7z"/>
  	<path d="M163.6,20.7h4.6V35h-4.6v-1.7c-1.2,1.9-3,2.2-4.2,2.2c-2,0-3.8-0.5-5.3-2.2c-1.5-1.6-2.1-3.5-2.1-5.3
  		c0-2.4,0.9-4.4,2.2-5.8c1.2-1.2,3-2,5-2c1.2,0,3.2,0.3,4.5,2.1V20.7z M157.8,25.2c-0.5,0.5-1.1,1.3-1.1,2.6c0,1.3,0.5,2.1,1,2.6
  		c0.6,0.7,1.6,1.1,2.7,1.1c0.9,0,1.8-0.4,2.4-1c0.6-0.6,1.1-1.5,1.1-2.7c0-1-0.4-2-1.1-2.6c-0.7-0.7-1.7-1-2.6-1
  		C159.3,24.2,158.4,24.6,157.8,25.2z"/>
  	<path d="M171.8,20.7h4.6v1.7c1.4-1.8,3.1-2.1,4.4-2.1c1.2,0,2.9,0.2,4.1,1.4c1.3,1.3,1.4,3,1.4,4.2v9h-4.6v-7.3
  		c0-0.9,0-2.1-0.8-2.8c-0.4-0.4-0.9-0.6-1.8-0.6c-1,0-1.6,0.4-1.9,0.8c-0.8,0.8-0.9,1.8-0.9,2.7V35h-4.6V20.7z"/>
  	<path d="M205.5,35h-4.6v-1.7c-0.7,1-2,2.2-4.5,2.2c-2.1,0-3.6-0.7-4.9-2c-1.5-1.5-2.2-3.5-2.2-5.7c0-2.4,0.9-4.3,2.2-5.6
  		c1.2-1.2,3-1.9,5-1.9c1.6,0,3.3,0.5,4.4,2.1V11.6h4.6V35z M195.1,25.2c-0.7,0.6-1.1,1.6-1.1,2.7c0,1.1,0.4,2,1.1,2.6
  		c0.7,0.7,1.6,1,2.4,1c0.9,0,1.9-0.4,2.6-1.1c0.5-0.5,1.1-1.4,1.1-2.6c0-1.2-0.5-2-1-2.6c-0.7-0.8-1.6-1.1-2.6-1.1
  		C196.6,24.2,195.8,24.4,195.1,25.2z"/>
  </g>
</g>
</svg>
