<?xml version="1.0" encoding="utf-8"?>
<!-- Generator: Adobe Illustrator 21.0.2, SVG Export Plug-In . SVG Version: 6.00 Build 0)  -->
<svg version="1.1" id="Layer_1" xmlns="http://www.w3.org/2000/svg" xmlns:xlink="http://www.w3.org/1999/xlink" x="0px" y="0px"
	 viewBox="0 0 217 48" style="enable-background:new 0 0 217 48;" xml:space="preserve">
<g fill="#FFFFFF">
  <g>
  	<path d="M63.2,35.3V13.8h4.3l11.7,13.9V13.8h5v21.5h-4.3L68.1,21.3v13.9H63.2z"/>
  	<path d="M90.9,12c1.5,0,2.7,1.2,2.7,2.7s-1.2,2.7-2.7,2.7s-2.7-1.2-2.7-2.7S89.4,12,90.9,12z M93.3,20.9v14.4h-4.6V20.9H93.3z"/>
  	<path d="M108,25.4c-1.1-0.9-2.3-1.1-3-1.1c-1.5,0-2.3,0.7-2.6,1c-0.6,0.6-1.1,1.5-1.1,2.7c0,1.1,0.4,2,1,2.6
  		c0.7,0.8,1.8,1.2,2.8,1.2c0.8,0,1.9-0.2,3-1.1v4.2c-1.2,0.7-2.4,0.9-3.7,0.9c-2.4,0-4.3-0.9-5.6-2.2c-1.1-1.1-2.3-2.9-2.3-5.5
  		c0-2.5,1-4.4,2.4-5.7c1.6-1.5,3.5-2,5.5-2c1.3,0,2.4,0.2,3.6,0.8V25.4z"/>
  	<path d="M125.8,28.9h-10.7c0,0.8,0.3,1.8,0.9,2.5c0.7,0.8,1.7,0.9,2.4,0.9c0.7,0,1.4-0.1,1.9-0.4c0.1,0,0.6-0.4,1-1.2l4.4,0.5
  		c-0.6,2-1.9,3.1-2.8,3.6c-1.4,0.8-2.9,1.1-4.5,1.1c-2.2,0-4.1-0.4-5.7-2.1c-1.3-1.3-2.2-3.2-2.2-5.5c0-2.1,0.7-4.2,2.2-5.7
  		c1.7-1.7,3.9-2.1,5.5-2.1c1.6,0,3.9,0.3,5.7,2.2c1.7,1.8,2,4.1,2,5.8V28.9z M121.5,26.1c0-0.1-0.3-1-0.9-1.7
  		c-0.5-0.5-1.3-0.8-2.2-0.8c-1.2,0-1.9,0.5-2.4,0.9c-0.4,0.4-0.7,0.9-0.8,1.5H121.5z"/>
  	<path d="M152.3,34.6c-1.9,1-3.4,1.2-4.7,1.2c-4,0-6.6-1.4-8.4-3.1c-1.9-1.9-3.4-4.7-3.4-8.2c0-3.4,1.4-6.2,3.4-8.1
  		c1.9-1.8,4.7-3.1,8-3.1c1.4,0,3.1,0.3,5.2,1.2v5.7c-1.1-1.2-2.7-2.3-5-2.3c-1.8,0-3.3,0.6-4.4,1.7c-1.2,1.2-2,2.9-2,5
  		c0,2.2,0.9,3.8,1.9,4.7c0.5,0.5,2,1.8,4.6,1.8c1.3,0,3-0.4,4.9-2.2V34.6z"/>
  	<path d="M160.5,11.8v23.5h-4.6V11.8H160.5z"/>
  	<path d="M166.9,12c1.5,0,2.7,1.2,2.7,2.7s-1.2,2.7-2.7,2.7c-1.5,0-2.7-1.2-2.7-2.7S165.4,12,166.9,12z M169.2,20.9v14.4h-4.6V20.9
  		H169.2z"/>
  	<path d="M187.9,28.9h-10.7c0,0.8,0.3,1.8,0.9,2.5c0.7,0.8,1.7,0.9,2.4,0.9c0.7,0,1.4-0.1,1.9-0.4c0.1,0,0.6-0.4,1-1.2l4.4,0.5
  		c-0.6,2-1.9,3.1-2.8,3.6c-1.4,0.8-2.9,1.1-4.5,1.1c-2.2,0-4.1-0.4-5.7-2.1c-1.3-1.3-2.2-3.2-2.2-5.5c0-2.1,0.7-4.2,2.2-5.7
  		c1.7-1.7,3.9-2.1,5.5-2.1s3.9,0.3,5.7,2.2c1.7,1.8,2,4.1,2,5.8V28.9z M183.6,26.1c0-0.1-0.3-1-0.9-1.7c-0.5-0.5-1.3-0.8-2.2-0.8
  		c-1.2,0-1.9,0.5-2.4,0.9c-0.4,0.4-0.7,0.9-0.8,1.5H183.6z"/>
  	<path d="M190.8,20.9h4.6v1.7c1.4-1.8,3.1-2.1,4.4-2.1c1.3,0,2.9,0.2,4.1,1.5c1.4,1.4,1.5,3.1,1.5,4.2v9.1h-4.6v-7.4
  		c0-0.9,0-2.1-0.8-2.9c-0.4-0.4-0.9-0.6-1.8-0.6c-1,0-1.6,0.4-1.9,0.8c-0.8,0.8-0.9,1.8-0.9,2.7v7.4h-4.6V20.9z"/>
  	<path d="M213.8,24.6v10.6h-4.6V24.6h-1.6v-3.7h1.6v-4.6h4.6v4.6h2.9v3.7H213.8z"/>
  </g>
  <path d="M48,48H0V0h48V48z M5,43H43V5H5V43z"/>
  <g>
  	<path d="M13.9,35V13.6h4.3l11.6,13.8V13.6h4.9V35h-4.3L18.8,21.2V35H13.9z"/>
  </g>
</g>
</svg>
