<svg xmlns="http://www.w3.org/2000/svg" viewBox="0 0 206 48"><g fill="#FFF"><path d="M48 48H0V0h48v48zM5 43h38V5H5v38z"/><path d="M13.9 35V13.6h4.3l11.6 13.8V13.6h4.9V35h-4.3L18.8 21.2V35h-4.9z"/><g><path d="M56.3 35V13.6h4.3l11.6 13.8V13.6h4.9V35h-4.3L61.3 21.2V35h-5zM83.9 11.9c1.5 0 2.7 1.2 2.7 2.7s-1.2 2.7-2.7 2.7-2.7-1.2-2.7-2.7 1.2-2.7 2.7-2.7zm2.3 8.8V35h-4.6V20.7h4.6zM100.8 25.2c-1.1-.9-2.3-1.1-3-1.1-1.4 0-2.3.7-2.6 1-.6.6-1.1 1.5-1.1 2.7 0 1.1.4 2 1 2.6.7.8 1.8 1.2 2.8 1.2.8 0 1.9-.2 2.9-1.1v4.2c-1.2.7-2.4.9-3.6.9-2.4 0-4.2-.9-5.5-2.1-1.1-1.1-2.2-2.8-2.2-5.4 0-2.4 1-4.4 2.4-5.6 1.6-1.5 3.5-2 5.4-2 1.2 0 2.4.2 3.6.8v3.9zM118.5 28.6h-10.7c0 .8.3 1.8.9 2.4.7.8 1.7.9 2.4.9s1.4-.1 1.9-.4c.1 0 .6-.4 1-1.2l4.4.4c-.6 2-1.9 3.1-2.8 3.6-1.4.8-2.9 1.1-4.5 1.1-2.1 0-4-.4-5.7-2-1.2-1.2-2.1-3.1-2.1-5.5 0-2 .7-4.2 2.2-5.6 1.7-1.7 3.9-2 5.5-2s3.9.3 5.7 2.1c1.7 1.8 2 4 2 5.8v.4zm-4.2-2.7c0-.1-.3-1-.9-1.7-.5-.5-1.2-.8-2.2-.8-1.2 0-1.9.5-2.3.9-.4.4-.7.9-.8 1.5h6.2zM128.9 13.6c1.2 0 3.8.1 5.4 1.6 1.4 1.3 1.5 3.1 1.5 4 0 .8-.1 1.8-.7 2.7-.5.9-1.3 1.3-1.8 1.6 1 .2 2.2.7 2.9 1.4.7.7 1.4 1.9 1.4 3.8 0 2.1-.8 3.5-1.7 4.3-1.8 1.7-4.3 1.8-5.6 1.8h-8V13.6h6.6zm-1.6 8.7h.8c.7 0 1.8-.1 2.5-.6.4-.3.9-1 .9-1.9s-.4-1.5-.8-1.8c-.7-.5-1.7-.5-2.6-.5h-.8v4.8zm0 8.8h1.2c1.2 0 2.8 0 3.6-.9.4-.4.7-1 .7-1.8 0-.9-.4-1.4-.7-1.7-.9-.8-2.5-.8-3.5-.8h-1.3v5.2zM140.9 20.7h4.6v2.2c.4-.8 1.1-1.5 1.8-2 .8-.5 1.6-.6 2.5-.6.6 0 1 .1 1.5.2l-.3 4.3c-.6-.3-1.3-.5-2.1-.5-1 0-1.7.4-2.3 1-1 1.1-1.1 2.6-1.1 3.8V35h-4.6V20.7zM163.6 20.7h4.6V35h-4.6v-1.7c-1.2 1.9-3 2.2-4.2 2.2-2 0-3.8-.5-5.3-2.2-1.5-1.6-2.1-3.5-2.1-5.3 0-2.4.9-4.4 2.2-5.8 1.2-1.2 3-2 5-2 1.2 0 3.2.3 4.5 2.1v-1.6zm-5.8 4.5c-.5.5-1.1 1.3-1.1 2.6s.5 2.1 1 2.6c.6.7 1.6 1.1 2.7 1.1.9 0 1.8-.4 2.4-1 .6-.6 1.1-1.5 1.1-2.7 0-1-.4-2-1.1-2.6-.7-.7-1.7-1-2.6-1-.9 0-1.8.4-2.4 1zM171.8 20.7h4.6v1.7c1.4-1.8 3.1-2.1 4.4-2.1 1.2 0 2.9.2 4.1 1.4 1.3 1.3 1.4 3 1.4 4.2v9h-4.6v-7.3c0-.9 0-2.1-.8-2.8-.4-.4-.9-.6-1.8-.6-1 0-1.6.4-1.9.8-.8.8-.9 1.8-.9 2.7V35h-4.6V20.7zM205.5 35h-4.6v-1.7c-.7 1-2 2.2-4.5 2.2-2.1 0-3.6-.7-4.9-2-1.5-1.5-2.2-3.5-2.2-5.7 0-2.4.9-4.3 2.2-5.6 1.2-1.2 3-1.9 5-1.9 1.6 0 3.3.5 4.4 2.1V11.6h4.6V35zm-10.4-9.8c-.7.6-1.1 1.6-1.1 2.7s.4 2 1.1 2.6c.7.7 1.6 1 2.4 1 .9 0 1.9-.4 2.6-1.1.5-.5 1.1-1.4 1.1-2.6 0-1.2-.5-2-1-2.6-.7-.8-1.6-1.1-2.6-1.1-1 .1-1.8.3-2.5 1.1z"/></g></g></svg>